{"asset":{"version":"2.0","generator":"babylon.js glTF exporter for 3dsmax 2020 v20210115.1"},"scene":0,"scenes":[{"nodes":[0,1]}],"nodes":[{"mesh":0,"translation":[-0.3203125,0.0,17.2617188],"name":"Terrain_Outer","extras":{"mr displacement use global settings":true,"mr displacement view dependent":true,"mr displacement method":6,"mr displacement smoothing on":true,"mr displacement edge length":2.0,"mr displacement max displace":20.0,"mr displacement parametric subdivision level":5}},{"name":"Default light"}],"meshes":[{"primitives":[{"attributes":{"POSITION":1,"NORMAL":2,"TEXCOORD_0":3,"TEXCOORD_1":4},"indices":0,"material":0}],"name":"Terrain_Outer"}],"accessors":[{"bufferView":0,"componentType":5125,"count":1406016,"type":"SCALAR","name":"accessorIndices"},{"bufferView":1,"componentType":5126,"count":1406016,"max":[49898.75,1266.7511,49899.46],"min":[-49898.7539,150.677826,-49899.4766],"type":"VEC3","name":"accessorPositions"},{"bufferView":1,"byteOffset":16872192,"componentType":5126,"count":1406016,"type":"VEC3","name":"accessorNormals"},{"bufferView":2,"componentType":5126,"count":1406016,"type":"VEC2","name":"accessorUVs"},{"bufferView":2,"byteOffset":11248128,"componentType":5126,"count":1406016,"type":"VEC2","name":"accessorUV2s"}],"bufferViews":[{"buffer":0,"byteLength":5624064,"name":"bufferViewScalar"},{"buffer":0,"byteOffset":5624064,"byteLength":33744384,"byteStride":12,"name":"bufferViewFloatVec3"},{"buffer":0,"byteOffset":39368448,"byteLength":22496256,"byteStride":8,"name":"bufferViewFloatVec2"}],"buffers":[{"uri":"Terrain_Outer.bin","byteLength":61864704}],"materials":[{"pbrMetallicRoughness":{"baseColorTexture":{"index":0},"metallicFactor":0.0,"roughnessFactor":0.450053632},"name":"Outer"}],"textures":[{"sampler":0,"source":0,"name":"LowResAerial.jpg"}],"images":[{"uri":"Textures/LowResAerial.jpg"}],"samplers":[{"magFilter":9729,"minFilter":9987,"wrapS":33071,"wrapT":33071}]}